<svg xmlns="http://www.w3.org/2000/svg" width="98" height="30" viewBox="0 0 97.62 29.81"><path d="M20.56 24.57H9.4l-1.79 5.28H0L10.8-.04h8.43l10.82 29.89h-7.7zM14.98 8.01l-3.66 10.94h7.36zm43.1-8.05v29.89H50.8L38.62 11.42v18.43h-7.27V-.04h7.27L50.8 18.48V-.04zm5.27 0h7.29v29.89h-7.29zm12.17 0h7.27v29.89h-7.27z" fill-rule="evenodd" stroke-width=".99" fill="#fff"/><path d="M89.23 19.68a1.5 1.5 0 11-2.13-2.13 3.75 3.75 0 000-5.3 1.5 1.5 0 112.13-2.12 6.75 6.75 0 010 9.55z" stroke-width="1.28" fill="#fff"><animate attributeType="CSS" attributeName="opacity" values="1; 0; 1; 1" dur="3s" repeatCount="indefinite"/></path><path d="M93.97 23.4a1.5 1.5 0 11-2.13-2.13 8.96 8.96 0 000-12.73 1.5 1.5 0 112.13-2.13 12.02 12.02 0 010 16.99z" stroke-width="1.28" fill="#fff"><animate attributeType="CSS" attributeName="opacity" values="1; 0; 0; 1" dur="3s" repeatCount="indefinite"/></path></svg>